<svg xmlns="http://www.w3.org/2000/svg" version="1.1" xmlns:xlink="http://www.w3.org/1999/xlink" xmlns:svgjs="http://svgjs.dev/svgjs" viewBox="0 0 800 400"><path d="M28.251121520996094,156.05381774902344C44.38714564005534,151.49776186625164,75.62929920196532,132.06128458658856,104.48430633544922,134.52914428710938C133.3393134689331,136.9970039876302,136.09865271250408,167.90283081054687,164.57398986816406,167.71299743652344C193.04932702382405,167.5231640625,209.39910631815593,132.87295051574708,239.01345825195312,133.63229370117188C268.6278101857503,134.39163688659667,275.8191450500488,170.3512689971924,304.48431396484375,171.30044555664062C333.1494828796387,172.24962211608886,346.72346399943035,139.63527554829915,374.439453125,138.11659240722656C402.15544225056965,136.59790926615398,409.2286856587728,164.31540117899576,435.4259948730469,164.1255645751953C461.62330408732095,163.93572797139487,470.68011255900063,137.59939977010092,498.2062683105469,137.2197265625C525.7324240620931,136.84005335489908,535.6666431172689,163.4708460489909,565.4708251953125,162.3318328857422C595.2750072733561,161.19281972249348,613.0059454345703,131.83856201171875,639.013427734375,131.83856201171875C665.0209100341797,131.83856201171875,666.5097239176432,160.24363993326824,688.3408203125,162.3318328857422C710.1719167073568,164.42002583821613,720.3213823445637,141.1345339457194,742.1524658203125,141.70404052734375C763.9835492960613,142.2735471089681,781.0388455200195,160.08669253031414,791.4797973632812,165.0224151611328" fill="none" stroke-width="4" stroke="hsl(205, 69%, 50%)" stroke-linecap="round" stroke-dasharray="0 0"></path><defs><linearGradient id="SvgjsLinearGradient1001"><stop stop-color="hsl(37, 99%, 67%)" offset="0"></stop><stop stop-color="hsl(316, 73%, 52%)" offset="1"></stop></linearGradient></defs></svg>